<svg xmlns="http://www.w3.org/2000/svg" viewBox="0 0 720.99 883.79"><defs><style>.cls-1{fill:#e2f761;}</style></defs><g id="Layer_2" data-name="Layer 2"><g id="Layer_1-2" data-name="Layer 1"><path class="cls-1" d="M683.88,7A30.14,30.14,0,0,1,714,37.11V315.58a30,30,0,0,1-27.17,30,7,7,0,0,0-6.33,7V586.27a30.14,30.14,0,0,1-30.11,30.11H500.65a7,7,0,0,0-7,7V742.3a30.15,30.15,0,0,1-30.11,30.11H243.36a30.14,30.14,0,0,1-30.11-30.11V623.38a7,7,0,0,0-7-7H70.61A30.15,30.15,0,0,1,40.5,586.27V352.51a7,7,0,0,0-6.33-7A30,30,0,0,1,7,315.58V37.11A30.15,30.15,0,0,1,37.11,7H290.77a30.14,30.14,0,0,1,30.11,30.11V139.78a7,7,0,0,0,7,7h65.23a7,7,0,0,0,7-7V37.11A30.15,30.15,0,0,1,430.22,7H683.88m0-7H430.22a37.12,37.12,0,0,0-37.11,37.11V139.78H327.88V37.11A37.11,37.11,0,0,0,290.77,0H37.11A37.12,37.12,0,0,0,0,37.11V315.58a37.11,37.11,0,0,0,33.5,36.93V586.27a37.11,37.11,0,0,0,37.11,37.11H206.25V742.3a37.11,37.11,0,0,0,37.11,37.11H463.54a37.12,37.12,0,0,0,37.11-37.11V623.38H650.38a37.1,37.1,0,0,0,37.11-37.11V352.51A37.1,37.1,0,0,0,721,315.58V37.11A37.11,37.11,0,0,0,683.88,0Z"/><path class="cls-1" d="M465.61,821.93l-102.77,59.9a14.39,14.39,0,0,1-14.52,0l-102.76-59.9c-12.72-7.41-7.46-26.87,7.26-26.87H458.35C473.06,795.06,478.32,814.52,465.61,821.93Z"/></g></g></svg>